<svg width="24" height="25" viewBox="0 0 24 25" fill="none" xmlns="http://www.w3.org/2000/svg"><path d="M21.875 4.944c-1.526-.305-2.183-1.04-2.488-2.527a.188.188 0 0 0-.181-.142.188.188 0 0 0-.181.143c-.147.737-.39 1.276-.764 1.675-.027.03-.055.058-.084.085-.052.05-.109.094-.165.139a2.449 2.449 0 0 1-.398.258 3.17 3.17 0 0 1-.294.134c-.061.024-.12.05-.186.072-.12.04-.25.075-.383.108-.072.018-.138.04-.214.055a.19.19 0 0 0-.128.05h.007a.184.184 0 0 0-.07.14c0 .106.086.191.191.191 1.525.305 2.18 1.025 2.485 2.512.016.088.09.157.184.157.09 0 .162-.064.182-.148.016-.08.037-.147.055-.222.034-.14.07-.274.111-.399.022-.065.047-.126.071-.187.043-.108.088-.21.138-.306.047-.09.093-.182.147-.262l.01-.015a2.315 2.315 0 0 1 .315-.366c.393-.377.923-.617 1.64-.764a.19.19 0 1 0 0-.381ZM15.988 6.933c-.193.643-.503 1.018-1.146 1.146a.14.14 0 0 0 0 .28c.476.143.802.352.993.71.004.008.01.015.014.024.06.12.108.255.139.412a.14.14 0 0 0 .28 0c.048-.16.104-.304.17-.431v-.001c.2-.383.494-.617.976-.714a.14.14 0 0 0 0-.28c-.643-.193-1.017-.503-1.146-1.146a.14.14 0 1 0-.28 0Z" fill="currentColor"></path><path d="M20.866 8.104a1.526 1.526 0 0 1-.054.214 1.692 1.692 0 0 1-1.326 1.153c.01.607.011 1.31.011 2.136v.039l-.853-.853a28.039 28.039 0 0 0-.922-.897 1.643 1.643 0 0 1-.985 1.132c.235.215.514.493.876.855l1.884 1.884c-.002 1.475-.013 2.521-.103 3.338-.098.884-.274 1.315-.498 1.613-.17.227-.371.428-.598.598-.298.224-.729.4-1.613.497-.913.102-2.113.104-3.878.104h-1.62c-1.765 0-2.965-.002-3.878-.104-.515-.057-.877-.14-1.147-.244l7.685-7.686c.522-.522.87-.869 1.163-1.103a5.07 5.07 0 0 1 .044-.035c-.226-.144-.685-1.062-1.025-1.1-.353.288-.747.682-1.213 1.148l-7.802 7.802c-.184-.294-.328-.72-.413-1.49-.102-.913-.104-2.113-.104-3.878v-1.62c0-1.765.002-2.965.104-3.878.098-.884.273-1.315.497-1.613.17-.227.371-.428.598-.598.298-.224.729-.4 1.613-.498.913-.101 2.113-.103 3.878-.103h1.62c.789 0 1.464 0 2.052.01a1.692 1.692 0 0 1 1.353-1.452c-.908-.058-2.018-.058-3.405-.058h-1.62c-3.46 0-5.191 0-6.392.901-.34.255-.641.557-.897.897-.9 1.2-.9 2.931-.9 6.392v1.62c0 3.46 0 5.191.9 6.392a4.5 4.5 0 0 0 .897.896c1.2.902 2.931.902 6.392.902h1.62c3.46 0 5.191 0 6.392-.902a4.5 4.5 0 0 0 .897-.896c.901-1.2.901-2.931.901-6.392v-1.62c0-1.55 0-2.753-.08-3.717a4.142 4.142 0 0 0-.05.214Z" fill="currentColor"></path><path d="M8.497 10.917a2 2 0 1 0 0-4 2 2 0 0 0 0 4Z" fill="currentColor"></path></svg>