<svg width="24" height="24" viewBox="0 0 24 24" fill="none" xmlns="http://www.w3.org/2000/svg"><path d="M3.103 16.767c.053.51.133.95.253 1.339l14.75-14.75a6.96 6.96 0 0 0-1.339-.253L3.103 16.767ZM13.589 3c.572.001 1.093.005 1.567.015a.7.7 0 0 1-.06.07L3.078 15.1a.689.689 0 0 1-.064.057c-.01-.475-.014-.996-.015-1.57L13.59 3ZM10.213 3H11.716a.712.712 0 0 1-.165.254l-8.303 8.303A.713.713 0 0 1 3 11.72v-1.506l7.213-7.212ZM6.688 3.175c.495-.08 1.063-.124 1.728-.147-.029.035-.06.07-.093.103L3.027 8.427c.023-.67.067-1.241.148-1.739l3.513-3.513ZM19.282 3.963 3.963 19.283c.233.295.502.56.8.79l15.31-15.31a4.496 4.496 0 0 0-.79-.8ZM20.674 5.995a.618.618 0 0 0-.033.031L5.997 20.67l-.004.004c.394.112.84.186 1.357.234L20.908 7.35a7.515 7.515 0 0 0-.234-1.355ZM20.991 9.192l-11.8 11.8c.482.006 1.007.008 1.583.008L21 10.774c0-.576-.002-1.101-.009-1.582ZM21 12.704a.804.804 0 0 0-.058.053l-8.167 8.167a.807.807 0 0 0-.068.076h.103c.534 0 1.027 0 1.483-.003l6.704-6.704c.003-.456.003-.949.003-1.483v-.106ZM20.94 16.251 16.25 20.94c.76-.05 1.378-.142 1.9-.31l2.479-2.478c.168-.523.26-1.141.31-1.9Z" fill="currentColor"></path></svg>