<svg width="24" height="24" viewBox="0 0 24 24" fill="none" xmlns="http://www.w3.org/2000/svg"><path fill-rule="evenodd" clip-rule="evenodd" d="M2.25 11.25A7.75 7.75 0 0 1 10 3.5h4a7.75 7.75 0 0 1 .063 15.5l-.084.04a4 4 0 0 0-.438.29c-.358.263-.782.624-1.198.996-.414.37-.805.74-1.097 1.018l-.146.14-.206.196a5.317 5.317 0 0 1-.18.16l-.001.001c-.009.007-.055.043-.118.075l-.002.001a.756.756 0 0 1-.875-.137.75.75 0 0 1-.22-.53v-2.266A7.75 7.75 0 0 1 2.25 11.25zm8.748 8.27c.112-.102.227-.206.344-.31.428-.384.894-.782 1.31-1.088.207-.153.417-.294.614-.4.166-.09.438-.222.734-.222A6.25 6.25 0 1 0 14 5h-4a6.25 6.25 0 1 0 0 12.5h.998v2.02z" fill="currentColor"></path></svg>