<svg width="24" height="24" viewBox="0 0 24 24" fill="none" xmlns="http://www.w3.org/2000/svg"><path d="m10.914 14.196 2.702-1.56c.738-.42.738-1.092.017-1.511l-2.719-1.56c-.722-.42-1.326-.068-1.326.771v3.088c0 .839.588 1.191 1.326.772Z" fill="currentColor"></path><path fill-rule="evenodd" clip-rule="evenodd" d="M2.88 11.88c0-2.374 0-3.562.44-4.477A4.455 4.455 0 0 1 5.404 5.32c.915-.441 2.103-.441 4.477-.441h4c2.374 0 3.562 0 4.478.44a4.455 4.455 0 0 1 2.081 2.083c.441.915.441 2.103.441 4.477s0 3.561-.44 4.478a4.455 4.455 0 0 1-2.082 2.081c-.916.441-2.104.441-4.478.441h-4c-2.374 0-3.562 0-4.477-.44a4.455 4.455 0 0 1-2.082-2.082c-.441-.917-.441-2.104-.441-4.478Zm7-5.5h4c1.21 0 2.033.001 2.67.05.62.049.936.136 1.157.242.603.291 1.09.778 1.38 1.381.107.22.194.538.242 1.158.05.636.051 1.458.051 2.669 0 1.21-.001 2.033-.05 2.67-.049.62-.136.936-.242 1.157a2.955 2.955 0 0 1-1.381 1.38c-.22.107-.538.194-1.158.242-.636.05-1.458.051-2.669.051h-4c-1.21 0-2.033-.001-2.67-.05-.62-.049-.936-.136-1.157-.242a2.955 2.955 0 0 1-1.38-1.381c-.107-.22-.194-.538-.242-1.158-.05-.636-.051-1.458-.051-2.669 0-1.21.001-2.033.05-2.67.049-.62.136-.936.242-1.157.291-.603.778-1.09 1.381-1.38.22-.107.538-.194 1.158-.242.636-.05 1.458-.051 2.669-.051Z" fill="currentColor"></path></svg>