<svg width="24" height="24" viewBox="0 0 24 24" fill="none" xmlns="http://www.w3.org/2000/svg"><path fill-rule="evenodd" clip-rule="evenodd" d="M6.55 11.242a1.502 1.502 0 0 0 1.42 0l.002-.002.004-.002.01-.005.026-.015.084-.048a9.986 9.986 0 0 0 1.14-.787c.638-.51 1.478-1.312 2.026-2.375a2.991 2.991 0 0 0-4.003-4.16A2.991 2.991 0 0 0 3.2 7.912c.54 1.103 1.402 1.93 2.055 2.454a10.007 10.007 0 0 0 1.25.854l.028.015.01.005.003.002.002.001ZM4.53 7.217c.352.731.918 1.34 1.444 1.794a8.454 8.454 0 0 0 1.285.91s.086-.047.229-.136a8.452 8.452 0 0 0 1.054-.776c.51-.442 1.058-1.03 1.41-1.734a1.491 1.491 0 1 0-2.693-1.208 1.493 1.493 0 0 0-1.435-1.084A1.491 1.491 0 0 0 4.53 7.217ZM17.536 4.011a1.026 1.026 0 0 0-1.775 0l-3.307 5.694a1.026 1.026 0 0 0 .888 1.542h6.614c.79 0 1.285-.857.887-1.542l-3.307-5.694ZM16.65 5.47l-2.485 4.277h4.969L16.649 5.47ZM20.861 17.168a4.213 4.213 0 1 1-8.425 0 4.213 4.213 0 0 1 8.425 0Zm-1.5 0a2.713 2.713 0 1 1-5.425 0 2.713 2.713 0 0 1 5.425 0ZM3.406 14.086a.77.77 0 0 1 .77-.77h6.14a.77.77 0 0 1 .77.77v6.294c0 .34-.275.616-.615.616H4.176a.77.77 0 0 1-.77-.77v-6.14Zm1.5 5.41v-4.68h4.68v4.68h-4.68Z" fill="currentColor"></path></svg>