<svg width="24" height="24" viewBox="0 0 24 24" fill="none" xmlns="http://www.w3.org/2000/svg"><path fill-rule="evenodd" clip-rule="evenodd" d="M9 4.714h5.143V3H9v1.714ZM17.6 8.468A7.715 7.715 0 0 1 11.574 21h-.02a7.714 7.714 0 0 1 .02-15.43c1.822 0 3.495.63 4.815 1.686l1.005-1.005a.857.857 0 0 1 1.212 1.212L17.6 8.468Zm-6.028.335c.473 0 .857.384.857.857l-.002 3.27 2.32 2.321a.857.857 0 0 1-1.211 1.212l-2.572-2.571a.857.857 0 0 1-.25-.606V9.66c0-.474.384-.857.858-.857Zm6.217 4.482a6.215 6.215 0 1 1-12.43 0 6.215 6.215 0 0 1 12.43 0Z" fill="currentColor"></path></svg>