<svg viewBox="0 0 24 24" width="24" height="24" xmlns="http://www.w3.org/2000/svg"><g fill="#0e1318"><path d="m11.625 18c-.3452 0-.625.2798-.625.625s.2798.625.625.625h.75c.3452 0 .625-.2798.625-.625s-.2798-.625-.625-.625z"/><path d="m18 4c0-1.10457-.8954-2-2-2h-8c-1.10457 0-2 .89543-2 2v16c0 1.1046.89543 2 2 2h8c1.1046 0 2-.8954 2-2zm-10-.5h8c.2761 0 .5.22386.5.5v2.5h-9v-2.5c0-.27614.22386-.5.5-.5zm-.5 11.75v-7.25h9v7.25zm9 1.5v3.25c0 .2761-.2239.5-.5.5h-8c-.27614 0-.5-.2239-.5-.5v-3.25z"/></g></svg>