<?xml version="1.0" standalone="no"?>
<!DOCTYPE svg PUBLIC "-//W3C//DTD SVG 20010904//EN"
 "http://www.w3.org/TR/2001/REC-SVG-20010904/DTD/svg10.dtd">
<svg version="1.0" xmlns="http://www.w3.org/2000/svg"
 width="300.000000pt" height="102.000000pt" viewBox="0 0 300.000000 102.000000"
 preserveAspectRatio="xMidYMid meet">
<metadata>
Created by potrace 1.10, written by Peter Selinger 2001-2011
</metadata>
<g transform="translate(0.000000,102.000000) scale(0.100000,-0.100000)"
fill="#000000" stroke="none">
<path d="M492 869 c-65 -28 -146 -95 -257 -211 -117 -122 -179 -217 -171 -263
12 -63 105 -113 190 -100 86 13 157 59 295 191 72 70 133 125 135 123 13 -15
26 -52 26 -72 0 -13 -18 -51 -40 -85 -55 -86 -72 -122 -66 -138 10 -27 55 -13
130 41 62 44 76 51 76 35 0 -32 11 -50 41 -65 59 -31 159 -7 223 53 28 26 28
26 21 4 -11 -38 18 -72 63 -72 42 0 84 25 174 101 31 27 59 49 62 49 4 0 0
-13 -9 -30 -8 -16 -15 -43 -15 -60 0 -57 46 -51 119 16 l41 36 0 -31 c0 -34
15 -71 34 -83 35 -24 124 11 195 76 l23 21 -20 -35 c-21 -37 -16 -75 12 -86
30 -11 180 90 257 173 64 69 30 65 -48 -7 -38 -33 -96 -79 -130 -101 -58 -36
-63 -38 -63 -19 0 33 27 78 111 184 75 93 92 126 68 126 -23 0 -49 -22 -49
-41 0 -29 -173 -199 -242 -238 -68 -40 -92 -40 -108 0 -19 45 -1 92 88 225 72
107 79 115 104 110 31 -6 58 1 58 15 0 5 -13 9 -30 9 -33 0 -38 11 -14 31 25
20 46 67 33 74 -10 7 -89 -70 -89 -87 0 -4 -25 -5 -57 -2 -65 8 -69 -12 -3
-22 l38 -6 -32 -47 c-18 -25 -50 -74 -70 -108 -33 -55 -167 -193 -188 -193
-29 0 21 99 108 215 30 40 54 77 54 83 0 21 -18 13 -41 -19 l-22 -31 -13 31
c-18 44 -35 47 -100 17 -77 -35 -172 -105 -274 -200 -47 -43 -103 -87 -125
-97 -52 -24 -107 -24 -136 0 -21 17 -22 21 -11 59 16 52 33 65 91 68 59 3 108
23 172 70 60 43 85 85 69 114 -7 13 -21 20 -38 20 -44 0 -186 -94 -286 -189
-99 -95 -203 -177 -212 -168 -3 3 17 40 45 81 70 103 72 111 48 173 l-20 53
47 50 c52 55 56 72 24 94 -61 43 -123 -7 -115 -92 5 -42 3 -44 -61 -105 -36
-34 -95 -91 -131 -125 -142 -137 -338 -177 -371 -76 -19 56 31 135 175 280
100 100 133 127 195 158 80 39 110 40 110 2 0 -26 -46 -96 -63 -96 -7 0 -18 5
-23 10 -14 14 -57 -32 -52 -56 5 -27 20 -26 68 4 51 32 97 92 106 138 12 62
-49 81 -134 43z m275 -115 c6 -18 -48 -78 -57 -64 -9 14 -2 49 13 68 12 15 39
12 44 -4z m383 -110 c0 -39 -120 -115 -205 -130 -45 -7 -45 -6 35 56 49 38
142 90 163 90 4 0 7 -7 7 -16z m317 -20 c11 -29 -26 -82 -103 -149 -133 -113
-206 -153 -225 -124 -31 50 11 109 142 200 131 91 173 107 186 73z"/>
<path d="M1990 730 c-22 -22 -24 -50 -3 -57 17 -6 55 35 51 54 -5 25 -25 26
-48 3z"/>
<path d="M2438 667 c-49 -38 -83 -92 -92 -147 -5 -33 -17 -47 -82 -99 -85 -69
-133 -97 -144 -84 -5 4 7 68 26 142 35 134 39 181 18 188 -16 5 -71 -43 -61
-53 4 -4 13 -2 19 4 17 17 28 15 28 -4 0 -10 -16 -71 -36 -136 -49 -164 -41
-200 39 -167 72 30 327 257 363 324 36 67 -7 86 -78 32z m62 -6 c0 -11 -69
-99 -99 -125 -21 -19 -21 -19 -21 4 0 32 35 85 73 109 35 23 47 26 47 12z"/>
<path d="M2734 667 c-197 -114 -290 -227 -258 -312 19 -47 114 -58 190 -20 81
41 218 175 178 175 -3 0 -38 -29 -77 -65 -108 -99 -189 -128 -245 -89 -28 19
-28 52 1 94 20 30 27 34 77 37 67 4 139 38 198 93 36 34 43 46 40 73 -3 28 -7
32 -33 35 -17 1 -47 -8 -71 -21z m76 -21 c0 -20 -76 -85 -124 -106 -22 -10
-59 -21 -81 -25 -40 -6 -40 -6 -19 12 54 46 95 75 145 103 60 33 79 37 79 16z"/>
</g>
</svg>
